# xmcd
#
# Track frame offsets: 
#        150
#        21644
#        52054
#        88159
#        104961
#        162016
#        210845
#        288596
#        307729
#
# Disc length: 4184 seconds
#
# Revision: 7
# Processed by: cddbd v1.5.2PL0 Copyright (c) Steve Scherf et al.
# Submitted via: ExactAudioCopy v1.0b6
#
DISCID=7e105609
DTITLE=Albert Collins - Live at the El Mocambo Club, Toronto 1973
DYEAR=1973
DGENRE=Blues
TTITLE0=Intro
TTITLE1=All About My Girl
TTITLE2=I've Got A Mind To Travel
TTITLE3=Things That I Used To Do
TTITLE4=Frosty
TTITLE5=Wah Heat
TTITLE6=Can't You See What You're Doing To Me
TTITLE7=Cold Tremor
TTITLE8=Johnny B Cool
EXTD=Toronto, 1973, with the Moe Peters Band YEAR: 1999
EXTT0=
EXTT1=
EXTT2=
EXTT3=
EXTT4=
EXTT5=
EXTT6=
EXTT7=
EXTT8=
PLAYORDER=
